<svg xmlns="http://www.w3.org/2000/svg" fill="none" viewBox="0.5 0.5 229.65 56.41">
<path d="M76.816 21.568H70.48V17.6H87.248V21.568H80.912V40H76.816V21.568ZM105.231 34.688H97.0712L95.2152 40H91.2472L99.2152 17.6H103.087L111.055 40H107.087L105.231 34.688ZM103.951 31.104L101.167 23.104L98.3512 31.104H103.951ZM128.343 40.448C125.997 40.448 123.97 39.968 122.263 39.008C120.578 38.048 119.287 36.6933 118.391 34.944C117.495 33.1733 117.047 31.1147 117.047 28.768C117.047 26.464 117.538 24.4373 118.519 22.688C119.522 20.9173 120.909 19.552 122.679 18.592C124.45 17.632 126.477 17.152 128.759 17.152C129.911 17.152 131.031 17.2693 132.119 17.504C133.207 17.7387 134.146 18.0587 134.935 18.464L134.487 22.368C132.631 21.5147 130.722 21.088 128.759 21.088C126.37 21.088 124.567 21.792 123.351 23.2C122.135 24.5867 121.527 26.4213 121.527 28.704C121.527 31.072 122.125 32.9707 123.319 34.4C124.514 35.808 126.242 36.512 128.503 36.512C129.421 36.512 130.445 36.3947 131.575 36.16V32.16H128.503V28.768H135.671V38.752C134.839 39.2427 133.773 39.648 132.471 39.968C131.191 40.288 129.815 40.448 128.343 40.448ZM151.258 40.448C149.999 40.448 148.644 40.2773 147.194 39.936C145.764 39.5947 144.644 39.2213 143.834 38.816L144.314 34.464C147.13 35.8293 149.604 36.512 151.738 36.512C152.868 36.512 153.754 36.2987 154.394 35.872C155.034 35.424 155.354 34.7733 155.354 33.92C155.354 33.28 155.172 32.7573 154.81 32.352C154.468 31.9253 153.967 31.5733 153.306 31.296C152.644 30.9973 151.588 30.592 150.138 30.08C148.772 29.6107 147.642 29.12 146.746 28.608C145.85 28.0747 145.135 27.4027 144.602 26.592C144.09 25.76 143.834 24.7467 143.834 23.552C143.834 21.632 144.538 20.0853 145.946 18.912C147.354 17.7387 149.37 17.152 151.994 17.152C153.231 17.152 154.458 17.2907 155.674 17.568C156.911 17.8453 158.042 18.1867 159.066 18.592L158.65 22.784C157.327 22.208 156.111 21.7813 155.002 21.504C153.914 21.2053 152.826 21.056 151.738 21.056C150.522 21.056 149.594 21.2587 148.954 21.664C148.314 22.0693 147.994 22.656 147.994 23.424C147.994 24.0213 148.164 24.512 148.506 24.896C148.847 25.28 149.306 25.6 149.882 25.856C150.479 26.112 151.354 26.4213 152.506 26.784C155.087 27.5947 156.964 28.5333 158.138 29.6C159.332 30.6453 159.93 32.0853 159.93 33.92C159.93 35.6693 159.322 37.1947 158.106 38.496C156.89 39.7973 154.607 40.448 151.258 40.448ZM180.06 34.688H171.9L170.044 40H166.076L174.044 17.6H177.916L185.884 40H181.916L180.06 34.688ZM178.78 31.104L175.996 23.104L173.18 31.104H178.78ZM193.564 17.6H207.356V21.568H197.66V26.336H205.148V30.304H197.66V40H193.564V17.6ZM215.497 17.6H229.833V21.568H219.689V26.336H227.561V30.304H219.689V36.032H230.153V40H215.497V17.6Z" fill="black"/>
<path d="M25.5049 28.752V43.7924L12.1906 36.1902L2.08203 30.4137V15.3789L15.2077 22.8737L25.5049 28.752Z" fill="#DDDAFD" stroke="#231F20" stroke-width="3" stroke-linecap="round" stroke-linejoin="round"/>
<path d="M49.0011 30.4135L38.6868 36.2861L25.5039 43.7922V28.7518L35.7325 22.9131L49.0011 30.4135Z" stroke="#231F20" stroke-width="3" stroke-linecap="round" stroke-linejoin="round"/>
<path d="M49 42.0287L25.4286 55.4017L2 42.0287L12.1886 36.19L25.1657 28.7517L25.5029 28.9382L38.6857 36.2861L49 42.0287Z" stroke="#231F20" stroke-width="3" stroke-linecap="round" stroke-linejoin="round"/>
<path d="M25.5029 43.7921L25.4286 55.4017L2 42.0286L12.1886 36.1899L25.5029 43.7921Z" fill="#7384FF" stroke="#231F20" stroke-width="3" stroke-linecap="round" stroke-linejoin="round"/>
<path d="M48.999 30.4136V42.0288L25.4219 55.4075L25.5019 43.7923L48.999 30.4136Z" fill="#7384FF" stroke="#231F20" stroke-width="3" stroke-linecap="round" stroke-linejoin="round"/>
<path d="M49.002 30.4133L38.6877 36.2859L25.5049 43.792L12.1906 36.1898L2.08203 30.4133L15.2077 22.8733V22.8677L25.3506 17.0403L35.6992 22.8903L35.7335 22.9129L49.002 30.4133Z" fill="#DDDAFD" stroke="#231F20" stroke-width="3" stroke-linecap="round" stroke-linejoin="round"/>
<g style="mix-blend-mode:multiply">
<path d="M48.7735 15.3787L25.5049 28.7517L2.08203 15.3787L25.3506 2L48.7735 15.3787Z" fill="#7384FF"/>
<path d="M48.7735 15.3787L25.5049 28.7517L2.08203 15.3787L25.3506 2L48.7735 15.3787Z" stroke="#231F20" stroke-width="3" stroke-linecap="round" stroke-linejoin="round"/>
</g>
</svg>