<svg xmlns="http://www.w3.org/2000/svg" fill="none" viewBox="2.5 1.5 50 56.41">
<path d="M27.5049 29.7518V44.7923L14.1906 37.1901L4.08203 31.4136V16.3788L17.2077 23.8736L27.5049 29.7518Z" fill="#DDDAFD" stroke="#231F20" stroke-width="3" stroke-linecap="round" stroke-linejoin="round"/>
<path d="M51.0011 31.4134L40.6868 37.286L27.5039 44.7921V29.7517L37.7325 23.913L51.0011 31.4134Z" stroke="#231F20" stroke-width="3" stroke-linecap="round" stroke-linejoin="round"/>
<path d="M51 43.0287L27.4286 56.4017L4 43.0287L14.1886 37.19L27.1657 29.7517L27.5029 29.9382L40.6857 37.2861L51 43.0287Z" stroke="#231F20" stroke-width="3" stroke-linecap="round" stroke-linejoin="round"/>
<path d="M27.5029 44.7922L27.4286 56.4018L4 43.0288L14.1886 37.1901L27.5029 44.7922Z" fill="#7384FF" stroke="#231F20" stroke-width="3" stroke-linecap="round" stroke-linejoin="round"/>
<path d="M50.999 31.4135V43.0287L27.4219 56.4074L27.5019 44.7921L50.999 31.4135Z" fill="#7384FF" stroke="#231F20" stroke-width="3" stroke-linecap="round" stroke-linejoin="round"/>
<path d="M51.002 31.4133L40.6877 37.2859L27.5049 44.792L14.1906 37.1898L4.08203 31.4133L17.2077 23.8733V23.8677L27.3506 18.0403L37.6992 23.8903L37.7335 23.9129L51.002 31.4133Z" fill="#DDDAFD" stroke="#231F20" stroke-width="3" stroke-linecap="round" stroke-linejoin="round"/>
<g style="mix-blend-mode:multiply">
<path d="M50.7735 16.3787L27.5049 29.7517L4.08203 16.3787L27.3506 3L50.7735 16.3787Z" fill="#7384FF"/>
<path d="M50.7735 16.3787L27.5049 29.7517L4.08203 16.3787L27.3506 3L50.7735 16.3787Z" stroke="#231F20" stroke-width="3" stroke-linecap="round" stroke-linejoin="round"/>
</g>
</svg>